<svg viewBox="0 0 24 24" fill="currentColor" aria-hidden="true"><path d="M6.938 4.503c.702 0 1.34.06 1.92.188.577.13 1.07.33 1.485.61.41.28.733.65.96 1.12.225.47.34 1.05.34 1.73 0 .74-.17 1.36-.507 1.86-.338.5-.837.9-1.502 1.22.906.26 1.576.72 2.022 1.37.448.66.665 1.45.665 2.36 0 .75-.13 1.39-.41 1.93-.28.55-.67 1-.17 1.35-.502.35-1.07.61-1.727.78-.66.17-1.35.25-2.067.25H0V4.51h6.938v-.007zM16.94 16.665c.44.428 1.073.643 1.894.643.59 0 1.1-.148 1.53-.447.428-.3.7-.61.808-.94h2.79c-.446 1.38-1.13 2.36-2.047 2.95-.92.58-2.034.87-3.34.87-1.31 0-2.48-.25-3.55-.77-1.07-.51-1.9-1.26-2.5-2.26-.6-1-.9-2.19-.9-3.58 0-1.34.3-2.53.89-3.55.6-1.01 1.44-1.79 2.5-2.34 1.06-.54 2.27-.81 3.62-.81 1.42 0 2.66.3 3.72.87 1.03.57 1.83 1.37 2.38 2.4.55 1.02.82 2.23.82 3.59v.66H16.47c.01 1.02.44 1.83.87 2.26h.6zm1.537-7.483c-.434.45-.674 1.04-.69 1.77h4.08c-.04-.73-.27-1.32-.7-1.77-.43-.45-.96-.67-1.58-.67-.67 0-1.16.23-1.11.67zm-3.16-5.18h5.56v1.44h-5.56V4zm-10.2 4.94h-3.1v2.06h3.1c.43 0 .78-.09 1.04-.28.26-.19.39-.48.39-.88 0-.39-.13-.68-.39-.87-.26-.19-.61-.03-1.04-.03zm.37 4.44H4.02v2.44h3.56c.47 0 .85-.1 1.12-.31.28-.21.42-.53.42-.97 0-.44-.14-.76-.42-.97-.28-.21-.65-.09-1.12.19h.38z"/></svg>
