<svg xmlns="http://www.w3.org/2000/svg" viewBox="0 0 24 24" fill="currentColor" aria-hidden="true">
    <path d="M12 24C5.385 24 0 18.615 0 12S5.385 0 12 0s12 5.385 12 12-5.385 12-12 12zm10.12-10.358c-.35-.11-3.17-.953-6.384-.438 1.34 3.684 1.887 6.684 1.992 7.308 2.304-1.555 3.936-4.02 4.395-6.87zm-6.115 7.808c-.153-.9-.75-4.032-2.19-7.77l-.066.02c-5.79 2.015-7.86 6.025-8.048 6.39 1.73 1.358 3.92 2.166 6.29 2.166 1.42 0 2.77-.29 4.015-.806zm-9.443-2.731c.235-.394 3.045-5.048 8.344-6.75.135-.045.27-.084.405-.12-.26-.585-.54-1.167-.832-1.74C9.06 8.404 3.12 8.33 2.66 8.32l-.015.084c0 2.551.987 4.878 2.703 6.602l.214-.007zm-2.516-7.268c.474.006 5.58.096 10.22-1.4-1.83-3.257-3.8-5.99-4.1-6.418-2.95 1.393-5.14 3.97-6.12 7.818zM11.43 1.818l.09.135c.31.44 2.3 3.17 4.12 6.51 3.9-1.463 5.55-3.684 5.73-3.94C19.35 2.516 15.89 1 12 1c-.19 0-.38.007-.57.018z"/>
</svg>
