<svg xmlns="http://www.w3.org/2000/svg" viewBox="0 0 24 24" fill="currentColor" aria-hidden="true"><path d="M23.977 6.416c-.105 2.338-1.739 5.543-4.894 9.609-3.268 4.247-6.026 6.37-8.29 6.37-1.409 0-2.578-1.294-3.553-3.881L5.322 12.12C4.52 9.533 3.664 8.238 2.75 8.238c-.196 0-.881.412-2.057 1.234L0 8.281c1.298-1.136 2.578-2.271 3.845-3.405 1.731-1.499 3.03-2.285 3.896-2.356 2.047-.193 3.308 1.204 3.783 4.192.51 3.218.864 5.217 1.062 5.997.589 2.683 1.237 4.021 1.944 4.021.549 0 1.373-.86 2.476-2.582 1.103-1.723 1.693-3.038 1.773-3.946.158-1.491-.435-2.241-1.773-2.241-.63 0-1.274.144-1.929.433 1.285-4.198 3.74-6.241 7.361-6.126 2.681.084 3.945 1.816 3.739 5.143z"/></svg>
