<svg viewBox="0 0 24 24" fill="currentColor" aria-hidden="true"><path d="M3.303 0h17.394C22.39 0 24 1.609 24 3.303v17.394C24 22.39 22.391 24 20.697 24H3.303C1.61 24 0 22.391 0 20.697V3.303C0 1.61 1.609 0 3.303 0zm.875 6.01v12.004c0 .15.061.226.184.226h2.168a.23.23 0 0 0 .17-.072.233.233 0 0 0 .069-.168v-4.198h.032l3.875 4.297c.077.094.163.141.259.141H13.2c.094 0 .15-.043.166-.13a.24.24 0 0 0-.046-.199l-4.225-4.496 4.05-4.494a.245.245 0 0 0 .059-.194c-.017-.083-.071-.125-.163-.125h-2.437a.245.245 0 0 0-.195.098L6.78 13.076h-.028V6.01c0-.125-.079-.188-.236-.188H4.424c-.164 0-.246.063-.246.188zm13.8 12.44c-.984 0-1.87-.208-2.659-.622a4.474 4.474 0 0 1-1.82-1.787c-.44-.77-.66-1.659-.66-2.667 0-.994.23-1.876.69-2.648a4.715 4.715 0 0 1 1.897-1.797c.805-.43 1.72-.645 2.748-.645.047 0 .12.003.223.01.1.006.242.017.424.033V6.07c0-.157.077-.236.23-.236h2.168c.163 0 .245.07.245.212v11.354a15.4 15.4 0 0 1 .047 1.079c0 .125-.062.199-.188.224a13.25 13.25 0 0 1-1.63.383 9.7 9.7 0 0 1-1.715.364zm.966-2.295v-5.47a2.853 2.853 0 0 0-.352-.074 2.997 2.997 0 0 0-.405-.027c-.5 0-.949.116-1.348.346a2.417 2.417 0 0 0-.933.985c-.222.424-.334.918-.334 1.482 0 .547.1 1.024.3 1.43.2.405.486.719.86.942.372.222.812.333 1.317.333.21 0 .41-.02.604-.059.192-.04.37-.098.534-.174l-.243-.715z"/></svg>
