<svg xmlns="http://www.w3.org/2000/svg" viewBox="0 0 24 24" fill="currentColor" aria-hidden="true"><path d="M12.04 0C5.408-.02.005 5.37.005 11.998c0 6.51 5.37 11.999 11.999 11.999 6.628 0 11.999-5.37 11.999-11.999C23.985 5.37 18.614 0 12.04 0zm-.06 20.652a8.663 8.663 0 0 1 0-17.32 8.663 8.663 0 0 1 0 17.32zm.02-14.108c-2.987 0-5.41 2.424-5.41 5.41h3.428c0-1.1.9-1.98 1.982-1.982 1.1 0 1.98.9 1.982 1.982v.02H17.47c0-2.988-2.423-5.43-5.41-5.43zm-5.41 8.148h3.428v3.428H6.59zm4.89 4.89v-1.463h-1.46v1.463zm0 0"/></svg>
