<svg viewBox="0 0 24 24" fill="currentColor" aria-hidden="true"><path d="M24 8.77h-2.468v7.565h-1.425V8.77h-2.462V7.53H24zm-6.852 7.565h-4.821V7.53h4.63v1.24h-3.205v2.494h2.953v1.234h-2.953v2.604h3.396zm-6.708 0H8.882L5.36 9.893a2.196 2.196 0 0 1-.14-.373h-.02c.02.124.029.465.029 1.022v5.823H3.88V7.53h1.64l3.46 6.396c.102.181.168.31.196.39h.015c-.025-.153-.037-.48-.037-.98V7.529h1.287zM2.108 15.634a.864.864 0 0 1-.87-.863.856.856 0 0 1 .87-.856.862.862 0 0 1 .87.856.868.868 0 0 1-.87.863z"/></svg>
