<svg xmlns="http://www.w3.org/2000/svg" viewBox="0 0 24 24" fill="currentColor" aria-hidden="true"><path d="M1.811 10.231c-.047 0-.058-.023-.035-.059l.246-.315c.023-.035.081-.058.128-.058h4.172c.046 0 .058.035.035.07l-.199.303c-.023.036-.082.07-.117.07zM.047 11.306c-.047 0-.059-.023-.035-.058l.245-.316c.023-.035.082-.058.129-.058h5.328c.047 0 .058.035.035.07l-.093.28c-.023.047-.07.07-.117.07zM2.828 12.38c-.047 0-.059-.035-.035-.07l.163-.292c.023-.035.07-.07.117-.07h2.337c.047 0 .07.035.07.082l-.023.28c0 .047-.047.082-.082.082zm12.129-2.43c-.745.199-1.257.35-1.991.548-.176.047-.187.059-.34-.117-.174-.199-.304-.327-.548-.444-.737-.362-1.455-.257-2.122.175-.795.514-1.199 1.27-1.188 2.216.012.935.654 1.692 1.585 1.819.8.105 1.468-.175 1.98-.76.106-.128.2-.268.315-.432H10.47c-.245 0-.304-.152-.222-.35.152-.362.432-.97.596-1.274a.315.315 0 0 1 .292-.187h4.253c-.023.316-.023.631-.07.947a4.983 4.983 0 0 1-.958 2.29c-.841 1.11-1.97 1.8-3.35 1.97-1.156.14-2.232-.093-3.179-.802-1.003-.771-1.5-1.77-1.55-3.015-.06-1.494.432-2.83 1.399-3.964 1.048-1.225 2.35-1.956 3.94-2.163 1.327-.175 2.585.058 3.71.76 1.003.63 1.62 1.514 1.925 2.655.07.21.07.21-.199.21zm3.34 3.245c-1.598.048-2.854-.338-3.945-1.274-.909-.795-1.468-1.807-1.644-3.015-.222-1.598.093-3.073.972-4.404.97-1.47 2.28-2.42 4.04-2.737 1.585-.292 3.085-.093 4.384.876 1.189.9 1.864 2.105 2.01 3.596.198 2.256-.537 4.09-2.163 5.585-1.178 1.063-2.573 1.362-3.655 1.373zm1.785-6.268c-.046-.047-.07-.07-.082-.105-.47-1.328-1.702-1.924-3.051-1.597-.842.21-1.468.77-1.795 1.585-.467 1.165-.327 2.28.363 3.28.502.733 1.199 1.074 2.093 1.086.816.012 1.527-.327 2.07-1.003.478-.595.71-1.27.76-2.024.023-.246 0-.492.012-.737l-.34-.292-.03-.193z"/></svg>
