<svg xmlns="http://www.w3.org/2000/svg" viewBox="0 0 24 24" fill="currentColor" aria-hidden="true"><path d="M12.19 2.38a9.344 9.344 0 0 0-9.234 6.893c.053-.02-.055.013 0 0-3.875 2.551-3.922 8.11-.247 10.941l.006.005a6.928 6.928 0 0 0 4.077 1.355h5.173l.03.02h5.192c.74 0 1.48-.138 2.17-.412a6.324 6.324 0 0 0 3.994-5.623 6.348 6.348 0 0 0-2.683-5.28c.048-.3.072-.605.072-.913a9.354 9.354 0 0 0-8.55-6.986zm0 1.599a7.752 7.752 0 0 1 7.108 5.215c.031.094.084.207.084.332 0 .22-.012.44-.037.658a6.137 6.137 0 0 0-.828-.06 6.24 6.24 0 0 0-1.3.138 5.363 5.363 0 0 0-10.686.5H6.55a5.376 5.376 0 0 0-.062.798c0 .166.01.33.024.494a5.351 5.351 0 0 0 2.738 4.317 5.373 5.373 0 0 0 2.612.682h4.865a4.718 4.718 0 0 1-5.348 1.46 4.725 4.725 0 0 1-3.097-4.428c0-.15.008-.3.024-.448l.017-.16-.125-.1a5.366 5.366 0 0 1-2.088-3.83 5.368 5.368 0 0 1 1.374-4.02A7.71 7.71 0 0 1 12.19 3.98zM9.568 9.18a3.78 3.78 0 0 1 3.749 3.396H5.82a3.784 3.784 0 0 1 3.748-3.396zm9.154.938c.22 0 .44.016.657.047a4.762 4.762 0 0 1 3.97 4.692 4.76 4.76 0 0 1-3.03 4.406 4.737 4.737 0 0 1-1.633.291h-5.23a3.748 3.748 0 0 0 1.44-2.94 3.77 3.77 0 0 0-.29-1.46h3.78a.8.8 0 0 0 0-1.6h-4.46a3.77 3.77 0 0 0-2.58-1.006 3.748 3.748 0 0 0-.898.11 3.83 3.83 0 0 1-.025-.44A3.786 3.786 0 0 1 14.81 10.5a3.767 3.767 0 0 1 .852-.285 4.8 4.8 0 0 1 3.06-.097z"/></svg>
