<svg xmlns="http://www.w3.org/2000/svg" viewBox="0 0 24 24" fill="currentColor" aria-hidden="true"><path d="M8.851 18.56s-.917.534.653.714c1.902.218 2.874.187 4.969-.211 0 0 .552.346 1.321.646-4.699 2.013-10.633-.118-6.943-1.149zm-.572-2.627s-1.028.761.542.924c2.032.209 3.636.227 6.413-.308 0 0 .384.389.987.602-5.679 1.661-12.007.13-7.942-1.218zm4.919-4.701c1.158 1.333-.304 2.533-.304 2.533s2.939-1.518 1.589-3.418c-1.261-1.772-2.228-2.652 3.007-5.688 0 0-8.216 2.051-4.292 6.573zm7.811 10.262s.679.559-.747.991c-2.712.822-11.288 1.069-13.669.033-.856-.373.75-.89 1.254-.998.527-.114.828-.93.828-.093-3.115.893-10.811 1.98-7.803 3.37 8.203 3.698 14.952.19 19.137-3.303zm-8.437-14.62c-2.491 1.406-6.01 2.804-6.01 2.804-.626.294-1.01.682-.904 1.152.35 1.56 6.914 1.175 6.914 1.175-.626-.241-1.029-.557-1.029-.557s3.375-1.147 3.604-2.505c.229-1.358-1.264-2.069-2.575-2.069zm-5.79 8.437s-3.43.815-1.214 1.112c.934.127 2.796.098 4.531-.049 1.417-.12 2.84-.375 2.84-.375s-.499.214-.86.46c-3.472.913-10.178.489-8.247-.445 1.648-.779 2.95-.703 2.95-.703zm12.208 6.826c3.531-1.834 1.898-3.597.759-3.361-.279.06-.404.112-.404.112s.104-.163.302-.233c2.256-.793 3.993 2.339-.728 3.582 0 0 .055-.049.071-.1zm-12.49-5.396s-1.636.389-.579.531c.447.06 1.337.046 2.167-.023 1.683-.146 3.372-.453 3.372-.453s-.491.211-.847.455c-3.437.904-10.071.484-8.162-.44 1.631-.77 4.049-.07 4.049-.07z"/></svg>
