<svg viewBox="0 0 24 24" fill="currentColor" aria-hidden="true"><path d="M10.204 14.35l.007.01-.999 2.413a5.171 5.171 0 0 1-2.075-2.597l2.578-.437.004.005.485.606zm-.833-2.129a1.66 1.66 0 0 1 .173-.707l-2.254-1.72a5.224 5.224 0 0 0-.655 2.507c0 .116.007.23.01.346l2.726-.426zm3.432 3.713c-.47.15-.963.235-1.476.252l-.834 2.482c.289.055.584.086.887.086.998 0 1.923-.29 2.713-.774l-1.29-2.046zm2.43-1.44a5.162 5.162 0 0 1-1.544 1.546l1.29 2.042a8.144 8.144 0 0 0 2.597-2.57l-2.344-1.018zm.683-2.43l2.725.427c.003-.116.011-.23.011-.347a5.226 5.226 0 0 0-.658-2.507l-2.252 1.72c.1.217.163.452.174.708zm-2.633-4.93a5.2 5.2 0 0 1 1.964 1.553l2.045-1.291A8.16 8.16 0 0 0 14.018 5.4l-.73 2.664zM12 6.855c.253 0 .498.03.737.073L13.5 4.24A8.188 8.188 0 0 0 12 4.09c-.5 0-.985.054-1.459.148l.756 2.692c.232-.044.47-.075.703-.075zm-3.28 1.498a5.2 5.2 0 0 1 1.963-1.553L9.95 4.136a8.16 8.16 0 0 0-3.27 2.316l2.04 1.291zM8.68 11.35l.485-.605.004-.005 2.578.437a5.171 5.171 0 0 0-2.074-2.597l-1 2.413.007-.043zM12 0C5.373 0 0 5.373 0 12s5.373 12 12 12 12-5.373 12-12S18.627 0 12 0zm0 21.539a9.539 9.539 0 1 1 0-19.078 9.539 9.539 0 0 1 0 19.078z"/></svg>
