<svg viewBox="0 0 24 24" fill="currentColor" aria-hidden="true"><path d="M23.642 5.43a.364.364 0 0 1 .014.1v5.149c0 .135-.073.26-.189.326l-4.323 2.49v4.934a.378.378 0 0 1-.188.326L9.93 23.949a.316.316 0 0 1-.066.027c-.008.002-.016.008-.024.01a.348.348 0 0 1-.192 0c-.011-.002-.02-.008-.03-.012-.02-.008-.042-.014-.062-.027L.492 18.755a.376.376 0 0 1-.188-.326V2.062a.368.368 0 0 1 .014-.1c.003-.012.01-.021.014-.033a.353.353 0 0 1 .026-.051c.007-.01.016-.017.024-.027a.32.32 0 0 1 .038-.042c.01-.008.02-.013.028-.02A.326.326 0 0 1 .48 1.77L4.83.02a.375.375 0 0 1 .375 0l4.348 1.75a.33.33 0 0 1 .05.03c.01.007.02.012.028.02a.32.32 0 0 1 .038.04c.008.01.017.018.024.027a.37.37 0 0 1 .026.052c.005.012.012.021.014.033a.367.367 0 0 1 .014.1v9.852l3.76-2.17V5.53a.375.375 0 0 1 .013-.1c.003-.012.01-.021.014-.033a.354.354 0 0 1 .026-.052c.007-.01.016-.017.024-.027.012-.015.024-.03.038-.04.01-.008.02-.013.028-.02a.323.323 0 0 1 .05-.03l4.35-1.75a.375.375 0 0 1 .374 0l4.348 1.75a.33.33 0 0 1 .05.03c.01.007.02.012.028.02.014.01.026.025.038.04.008.01.017.018.024.027a.373.373 0 0 1 .026.052c.005.012.012.021.014.033zm-.74 5.032V6.179l-1.578.908-2.182 1.256v4.283zm-4.348 7.47V13.65l-2.148 1.225-6.139 3.527v4.33zM1.05 2.756v15.59l8.28 4.76v-4.326l-4.322-2.47-.002-.002-.002-.002c-.012-.007-.021-.016-.031-.024l-.003-.003c-.01-.01-.018-.02-.025-.03l-.001-.003c-.008-.012-.013-.025-.02-.037l-.002-.004c-.006-.015-.009-.03-.012-.046l-.002-.013c-.003-.014-.003-.028-.003-.043V5.93L2.634 4.67zM5.212.725L1.457 2.23l3.755 1.506L8.967 2.23zm4.023 9.77V1.812L5.587 3.984l.002 8.683zm9.289-3.97L14.77 8.03l-3.755 1.506 3.755 1.505zm-4.023 8.256V10.5l-2.182-1.256-1.578-.907v4.283z"/></svg>
