<svg viewBox="0 0 24 24" fill="currentColor" aria-hidden="true"><path d="M12.504 0c-.155 0-.315.008-.48.021-4.226.333-3.105 4.807-3.17 6.298-.076 1.092-.3 1.953-1.05 3.02-.885 1.051-2.127 2.75-2.716 4.521-.278.832-.41 1.684-.287 2.489a.424.424 0 0 0-.11.135c-.26.268-.45.6-.663.839-.199.199-.485.267-.797.4-.313.136-.658.269-.864.68-.09.189-.136.394-.132.602 0 .199.027.4.055.536.058.399.116.728.04.97-.249.68-.28 1.145-.106 1.484.174.334.535.47.94.601.81.2 1.91.135 2.774.6.926.466 1.866.67 2.616.47.526-.116.97-.464 1.208-.946.587-.003 1.23-.269 2.26-.334.699-.058 1.574.267 2.577.2.025.134.063.198.114.333l.003.003c.391.778 1.113 1.132 1.884 1.071.771-.06 1.592-.536 2.257-1.306.631-.765 1.17-1.818 1.202-2.87.03-1.048-.373-2.227-1.023-2.833-.315-.3-.7-.45-1.085-.43l-.027.003c-.758.072-1.176.48-1.396.86-.22.38-.332.8-.332 1.393a2.97 2.97 0 0 0 .117 1.08 7.32 7.32 0 0 1-.345-.053c.42-.874.658-1.78.603-2.637-.071-1.2-.572-2.353-1.414-3.396a3.27 3.27 0 0 1-.45-.65c-.146-.362-.094-.814.098-1.28.44-1.058 1.35-1.94 1.8-2.832.452-.875.442-1.77.133-2.617-.31-.85-.914-1.58-1.7-2.152a3.13 3.13 0 0 1-1.15-1.35c-.233-.524-.25-1.07-.17-1.548.08-.466.26-.9.46-1.23.203-.33.44-.57.64-.67.196-.098.362-.12.5-.12zm.48 2.16c.103.002.202.018.3.046.196.055.37.168.512.33.14.163.22.375.22.612 0 .458-.312.832-.674.832-.36 0-.672-.374-.672-.832 0-.456.311-.83.673-.83l-.36.042zm-1.97.226a.87.87 0 0 1 .302.05c.196.055.37.168.514.33a.956.956 0 0 1 .22.613c0 .457-.311.83-.673.83-.36 0-.673-.373-.673-.83 0-.456.311-.83.672-.83l.34-.163zm-.853.88c-.21.003-.413.068-.57.172-.15.1-.27.243-.3.4-.06.32.076.617.357.764.28.148.643.12.897-.09.253-.21.37-.543.292-.844-.08-.303-.37-.499-.676-.402zm2.97.003c-.306-.097-.596.1-.675.401-.078.302.04.636.293.846.253.21.617.237.897.09.28-.147.415-.444.357-.763-.032-.157-.15-.3-.3-.4-.158-.104-.36-.167-.572-.174zm-2.38 2.487-.02.002a4.85 4.85 0 0 0-.55.095l-.026.006c-.28.062-.569.096-.855.096a3.56 3.56 0 0 1-.844-.1 4.41 4.41 0 0 1-.526-.154c-.046-.017-.09-.038-.135-.058l-.013-.006c-.055-.027-.11-.055-.16-.085l-.02-.012c-.057-.037-.11-.076-.163-.117.034.105.075.21.125.314.086.181.205.35.373.498.253.22.618.375 1.053.418.435.043.872-.029 1.2-.216.326-.186.532-.468.581-.77.034-.205.01-.41-.042-.583-.037.088-.098.179-.195.266l-.002.002-.002.001c-.158.14-.355.262-.58.34l-.2.066zm2.12.113c-.225-.078-.422-.2-.58-.34l-.003-.003c-.097-.087-.16-.178-.196-.266-.052.174-.075.378-.042.582.05.303.255.585.58.77.328.188.765.26 1.2.217.435-.043.8-.198 1.053-.418.168-.148.286-.317.373-.498.05-.103.09-.21.124-.314a1.79 1.79 0 0 1-.162.117l-.02.012a2.6 2.6 0 0 1-.16.085l-.013.006c-.044.02-.09.04-.135.058a4.41 4.41 0 0 1-.526.154 3.56 3.56 0 0 1-.845.1c-.285 0-.575-.034-.855-.096l-.026-.006a4.84 4.84 0 0 0-.55-.095l-.22-.002z"/></svg>
