<svg viewBox="0 0 24 24" fill="currentColor" aria-hidden="true"><path d="M17.193 9.555c-1.264-5.58-4.252-7.243-4.994-8.623-.38-.701-.566-1.032-.574-1.932 0 0-2.557.242-3.064 5.338C6.749 14.2 6.3 16.07 3.26 18.432c1.197.896 2.498 1.25 3.935 1.266.47.006.97-.05 1.473-.166.75-.178 1.526-.476 2.14-.97 1.47-1.16 1.893-3.124 1.773-4.734-.237.024-.463.03-.673.016-.43-.028-.845-.12-1.183-.346l-.04-.028c-.258-.174-.46-.393-.51-.65-.1-.484.13-.994.596-1.382a2.52 2.52 0 0 1 .45-.278c.003 0 .013-.005.04-.014.04-.013.094-.03.16-.047.246-.063.593-.108.862-.012.218.077.376.232.492.44.052.096.094.203.122.32.065.27.063.567-.007.86a2.13 2.13 0 0 1-.054.168c-.011.03-.024.06-.037.09-.044.1-.097.194-.162.283-.065.09-.14.173-.228.25-.04.036-.082.07-.127.103-.104.076-.22.143-.35.198-.131.055-.276.097-.433.12a2.74 2.74 0 0 1-.522.022c.24.316.607.524 1.067.6.188.032.39.04.602.024.584-.04 1.228-.23 1.693-.657.547-.504.82-1.2.82-2.024 0-.25-.025-.508-.077-.774-.29-1.498-1.13-2.593-2.25-3.237z"/></svg>
