<svg viewBox="0 0 24 24" fill="currentColor" aria-hidden="true"><path d="M16.405 5.501c-.115 0-.193.014-.274.033v.013h.014c.054.104.146.19.256.238l.036.009c-.064.015-.13.033-.19.054l.001.002c.077.044.148.104.196.18l.015.031a.63.63 0 0 0 .065-.005c.07-.014.133-.037.186-.07.056-.034.1-.075.13-.123a.28.28 0 0 0 .049-.153.3.3 0 0 0-.033-.14l-.001-.002a.255.255 0 0 0-.088-.1c-.04-.026-.09-.044-.143-.054a.626.626 0 0 0-.219 0zm-1.75.05c-.082 0-.163.006-.245.018a1.1 1.1 0 0 0-.24.059 1.063 1.063 0 0 0-.21.103.843.843 0 0 0-.167.148.614.614 0 0 0-.108.186.577.577 0 0 0-.035.211c0 .07.01.14.032.208a.54.54 0 0 0 .096.181c.042.052.096.095.158.126.062.032.131.05.202.054.073.004.147-.007.217-.033a.637.637 0 0 0 .19-.112.744.744 0 0 0 .145-.177.803.803 0 0 0 .09-.23.852.852 0 0 0 .02-.24.71.71 0 0 0-.054-.226.6.6 0 0 0-.125-.19.553.553 0 0 0-.197-.12.68.68 0 0 0-.257-.046l.048-.12zm9.005-.044c-.082 0-.163.007-.244.02a1.049 1.049 0 0 0-.239.06 1.02 1.02 0 0 0-.209.104.843.843 0 0 0-.166.15.608.608 0 0 0-.106.185.572.572 0 0 0-.035.21c0 .071.01.141.032.208.022.067.055.128.096.18.042.053.096.096.158.127a.564.564 0 0 0 .202.054.65.65 0 0 0 .217-.033.63.63 0 0 0 .189-.111.74.74 0 0 0 .145-.177.808.808 0 0 0 .09-.23.856.856 0 0 0 .02-.24.71.71 0 0 0-.054-.226.598.598 0 0 0-.125-.19.553.553 0 0 0-.197-.12.677.677 0 0 0-.258-.048l.044-.123zm-8.254.175c-.077 0-.153.005-.226.016a.919.919 0 0 0-.217.055.95.95 0 0 0-.193.097.787.787 0 0 0-.154.138.565.565 0 0 0-.1.174.539.539 0 0 0-.031.197c0 .066.01.13.03.194.02.063.05.12.09.168.038.05.087.09.143.12.056.03.118.048.182.053.066.004.132-.006.194-.031a.596.596 0 0 0 .172-.103.68.68 0 0 0 .131-.162.75.75 0 0 0 .081-.213.8.8 0 0 0 .018-.224.659.659 0 0 0-.05-.21.546.546 0 0 0-.113-.175.508.508 0 0 0-.178-.112.625.625 0 0 0-.237-.045l.058-.14zM12 0C5.373 0 0 5.373 0 12s5.373 12 12 12 12-5.373 12-12S18.627 0 12 0zm5.547 15.03c-.42.47-.928.83-1.508 1.079a4.9 4.9 0 0 1-1.935.376c-.668 0-1.305-.12-1.907-.36a4.534 4.534 0 0 1-1.548-1.03 4.756 4.756 0 0 1-1.028-1.59A5.48 5.48 0 0 1 9.25 11.5c0-.8.122-1.54.367-2.219A5.043 5.043 0 0 1 10.67 7.59a4.67 4.67 0 0 1 1.604-1.085c.626-.26 1.322-.39 2.086-.39.684 0 1.31.118 1.875.353a4.09 4.09 0 0 1 1.417.987l-1.2 1.19a2.658 2.658 0 0 0-.893-.647 2.71 2.71 0 0 0-1.15-.24c-.486 0-.915.1-1.288.295-.372.195-.688.46-.944.796a3.736 3.736 0 0 0-.59 1.175 5.01 5.01 0 0 0-.2 1.432c0 .513.065.993.194 1.44.13.447.32.838.572 1.175.252.336.562.6.928.795.367.195.79.292 1.27.292.497 0 .935-.104 1.313-.312.378-.208.68-.51.905-.905l1.344 1.09z"/></svg>
