<svg xmlns="http://www.w3.org/2000/svg" viewBox="0 0 24 24" fill="currentColor" aria-hidden="true"><path d="M16.934 8.519a1.044 1.044 0 0 1 .303.23l2.349-1.045-2.192-2.171-.491 2.954zM12.06.16a1.03 1.03 0 0 1 .512.77l3.184 1.416L12.69.88 12.06.16zm9.867 9.778-.572-.338-2.957 1.313c.038.158.038.323 0 .48l2.71 1.648.82-3.103zm-10.43 1.566c0-.13.013-.26.038-.387L7.8 8.68a1.05 1.05 0 0 1-.353.45l.644 3.876c.116.04.22.1.31.175l3.562-1.386a1.02 1.02 0 0 1-.465-.29zm1.168-1.896a1.01 1.01 0 0 1 .535.014L16.88 6.38a1.04 1.04 0 0 1-.043-.29l-4.285-1.907a1.05 1.05 0 0 1-.614.41l-.165 2.977c.204.07.38.183.52.334zm-3.185 3.57a1.054 1.054 0 0 1-.51-.765l-3.574.372 5.03 5.136-.946-4.743zm5.21 2.93.88 4.43 3.35-5.448-2.678-1.63a1.047 1.047 0 0 1-.463.42l-1.09 2.228zM9.547 2.237l.39 2.353a1.04 1.04 0 0 1 .604.222l3.442-1.524-4.436-.05zm6.27 12.43-1.073 2.188 1.97-1.036-.898-1.152zm-7.342-.634a1.044 1.044 0 0 1-.43-.41l-3.048.318-.01 3.578 5.116-1.855L8.475 14.033zm7.23 4.667-.808-4.066c-.173.027-.348.027-.52 0l-1.086 2.214 2.414 1.852zm-3.875-6.57a1.04 1.04 0 0 1-.264-.434L8.06 13.11l.5 2.513 3.266-1.173a1.042 1.042 0 0 1 0-.32zm.866-.11a1.05 1.05 0 0 1 .48.244l2.66-1.182a1.046 1.046 0 0 1 .004-.376l-3.12-1.895a1.043 1.043 0 0 1-.52.324l-.004.142 1.4.743zm-8.16 3.338.28-.028.67-.396-1.074-.52.124.944zm-4.35-8.22 1.8 1.783.25-1.493-2.05-.29zm2.2 8.11 3.025-.315-.498-2.505-2.527 1.318v1.502zm-1.44-1.406c.053 0 .105.005.156.014l2.592-1.351-1.24-6.265-3.047 5.516 1.54 2.086zm-.74-8.64 1.49.21L4.78 3.86 3.006 5.202zM3.578 9.756l.07.038 2.15-3.89-1.9-.267-.32 4.12zM4.665 22.45l4.35-1.576-.957-4.797-3.393 4.373zM5.624 9.924l-.07-.038-.013.16 2.47 1.2a1.048 1.048 0 0 1 .414-.316L7.8 8.68l-2.177 1.244zm10.36 12.268L12.37 24l4.2.002-1.187-.334 1.034-1.674-1.432-.106zm2.048 1.006-1.04 1.68 3.42.001-2.38-1.681zm2.855.003 2.218.001V12.64l-.816 3.085-1.402 7.476zm2.218-19.36V.55l-2.006 2.658 2.006-.867zm0 1.127L20.1 5.68l.35.346 2.655-1.18V4.97zm0 1.737-2.54 1.13.504.498 2.036-.905V6.706zm0 1.68-1.813.806 2.5 1.475-.687-2.281zm-2.81.625L17.74 6.434l.478-2.876-3.05-1.354-3.407 1.508.158-2.866L8.12 1.12 5.842 3.54l3.084 3.052-.4-2.41 4.477.05-4.7 2.082a1.043 1.043 0 0 1 .055.363l4.258 1.894c.16-.18.367-.308.597-.362l.165-2.98c-.212-.08-.394-.22-.527-.396L9.44 6.33a1.04 1.04 0 0 1-.272-.42l-3.488-3.45L3.75 4.84l2.02.286-.22 2.7-.037.067 2.22 11.224-.32.116.96 4.808 4.91-1.778L12.2 24l6.52-10.6-3.09-10.43 2.875 1.277-.49 2.955 3.09-1.374z"/></svg>
