<svg xmlns="http://www.w3.org/2000/svg" viewBox="0 0 24 24" fill="currentColor" aria-hidden="true"><path d="M11.998 24c-.321 0-.641-.084-.922-.247l-2.936-1.737c-.438-.245-.224-.332-.08-.383.585-.203.703-.25 1.328-.605.065-.037.151-.023.218.017l2.256 1.339c.082.045.198.045.275 0l8.795-5.076c.082-.047.134-.141.134-.238V6.921c0-.099-.053-.19-.137-.242l-8.791-5.072c-.081-.047-.189-.047-.271 0L3.075 6.68c-.085.05-.139.146-.139.243v10.15c0 .097.054.189.137.236l2.408 1.392c1.307.654 2.108-.116 2.108-.891V7.273c0-.142.114-.253.256-.253h1.115c.139 0 .255.111.255.253v10.537c0 1.745-.95 2.745-2.604 2.745-.508 0-.909 0-2.026-.551L2.28 18.675a1.86 1.86 0 0 1-.919-1.608V6.921c0-.663.353-1.28.919-1.608l8.795-5.082a1.924 1.924 0 0 1 1.844 0l8.794 5.082c.566.328.92.945.92 1.608v10.146c0 .663-.354 1.284-.92 1.608l-8.794 5.076c-.28.163-.601.247-.921.247zm2.718-6.998c-3.848 0-4.652-1.766-4.652-3.248 0-.139.113-.253.256-.253h1.138c.127 0 .232.092.252.217.172 1.161.683 1.747 3.006 1.747 1.851 0 2.638-.418 2.638-1.399 0-.565-.224-.984-3.09-1.265-2.397-.237-3.879-.765-3.879-2.681 0-1.766 1.489-2.817 3.984-2.817 2.802 0 4.186.972 4.359 3.062a.256.256 0 0 1-.064.196.257.257 0 0 1-.191.083h-1.142c-.12 0-.226-.084-.25-.202-.271-1.217-.931-1.608-2.712-1.608-1.997 0-2.228.695-2.228 1.217 0 .632.274.816 2.995 1.171 2.694.352 3.972.851 3.972 2.763 0 1.905-1.588 2.996-4.392 2.996z"/></svg>
