<svg viewBox="0 0 24 24" fill="currentColor" aria-hidden="true"><path d="M13.4642 19.8295h8.9218c.2557 0 .5057-.0683.7254-.1979a1.4711 1.4711 0 0 0 .5315-.5381 1.5155 1.5155 0 0 0 .1971-.7432 1.5155 1.5155 0 0 0-.1971-.7432L17.3029 7.762a1.4711 1.4711 0 0 0-.5315-.538 1.4272 1.4272 0 0 0-.7254-.198c-.2557 0-.505.0683-.7254.198a1.4711 1.4711 0 0 0-.5315.538l-1.3249 2.3556-2.532-4.504a1.4711 1.4711 0 0 0-.5315-.5381 1.4272 1.4272 0 0 0-.7254-.198c-.2557 0-.505.0683-.7254.198a1.4711 1.4711 0 0 0-.5315.5381L.1971 17.6071A1.5155 1.5155 0 0 0 0 18.3503c0 .2633.067.5224.1971.7432a1.4711 1.4711 0 0 0 .5315.538c.2204.1296.4697.1979.7254.1979h5.6003c2.2102 0 3.8409-1.0007 4.9328-2.9603l2.7339-4.8603 1.3-2.3131 3.8986 6.9305h-2.6-1.3l-.0554 1.4413zM7.0627 17.2289l-3.9628-.0011 3.9628-7.0456 1.9745 3.5228-1.9745 3.5239z"/></svg>
