<svg viewBox="0 0 24 24" fill="currentColor" aria-hidden="true"><path d="M7.01 10.207h-.944l-.515 2.648h.838c.556 0 .97-.105 1.242-.314.272-.21.455-.559.55-1.049.092-.47.05-.802-.124-.995-.175-.193-.527-.29-1.047-.29zM12 5.688C5.373 5.688 0 8.514 0 12s5.373 6.313 12 6.313S24 15.486 24 12c0-3.486-5.373-6.312-12-6.312zm-3.26 7.451c-.261.25-.575.438-.917.551-.336.108-.765.164-1.285.164h-.87l-.336 1.734H4.137l1.06-5.483h2.323c.56 0 1.001.074 1.316.227.315.152.524.39.62.71.098.322.084.68-.043 1.08a2.58 2.58 0 0 1-.673 1.017zm4.48 2.449l.562-2.887c.065-.328.039-.573-.077-.735-.117-.162-.327-.243-.633-.243h-.882l-.718 3.865H10.88l1.06-5.483h1.595l-.018.223c.498-.199.955-.299 1.371-.299.622 0 1.068.192 1.339.574.271.381.325.897.164 1.547L15.7 15.57h-1.48zm7.217-4.169a2.574 2.574 0 0 1-.673 1.017c-.261.25-.574.438-.917.551-.336.108-.765.164-1.285.164h-.869l-.337 1.734H14.76l1.06-5.483h2.324c.56 0 1 .074 1.315.227.315.152.524.39.621.71.097.322.083.68-.043 1.08zm-1.071-.71c-.175-.193-.527-.29-1.047-.29h-.943l-.516 2.648h.838c.557 0 .97-.105 1.243-.314.272-.21.455-.559.55-1.049.092-.47.05-.802-.125-.995z"/></svg>
