<svg viewBox="0 0 24 24" fill="currentColor" aria-hidden="true"><path d="M17.128 0a10.134 10.134 0 0 0-2.755.403l-.063.02A10.922 10.922 0 0 0 12.6.258C11.422.238 10.41.524 9.594 1 8.79.721 7.122.24 5.364.336 4.14.403 2.804.775 1.814 1.82.827 2.865.305 4.482.415 6.682c.032.626.158 1.29.315 1.951l.005.02A12.2 12.2 0 0 0 1.27 10.52c.24 1.233.677 2.426 1.415 3.333.322.393.701.714 1.134.947C3.418 17.06 4.796 19.7 5.328 21.2c.084.235.194.463.33.673.143.222.325.417.55.567.22.146.5.24.795.257.265.016.53-.03.78-.102l.04-.01c.282-.075.54-.186.79-.309.553-.27 1.07-.596 1.572-.924.527-.344 1.01-.72 1.42-1.109.47.071.95.107 1.44.107.512 0 1.01-.04 1.49-.117.405.384.882.753 1.4 1.09.503.328 1.02.654 1.573.924.25.123.508.234.79.309l.04.01c.25.072.515.118.78.102.295-.017.575-.111.795-.257.225-.15.407-.345.55-.567.136-.21.246-.438.33-.673.54-1.501 1.92-4.14 1.513-6.497.433-.232.81-.552 1.133-.944.739-.907 1.175-2.1 1.415-3.333.198-1.02.271-2.095.257-3.04-.03-1.824-.404-3.401-1.404-4.468C20.967.94 19.69.518 17.966.39 17.688.37 17.407.36 17.129 0zm0 1.026c.267 0 .535.01.8.027 1.49.112 2.617.476 3.44 1.356.822.88 1.192 2.26 1.22 3.982.013.896-.058 1.926-.244 2.898-.22 1.132-.618 2.211-1.26 2.996-.43.528-.977.907-1.658 1.072l-.108.023-.04.105c-.358.922-.634 1.862-.822 2.666-.062.26-.111.503-.147.727-.305-1.01-.75-2.202-1.356-3.312l-.104-.195-.217.04c-.36.067-.731.101-1.107.101a6.57 6.57 0 0 1-1.11-.093l-.217-.037-.103.195c-.612 1.162-1.04 2.29-1.35 3.28a11.12 11.12 0 0 1-.148-.726c-.187-.803-.462-1.74-.82-2.662l-.04-.105-.109-.023c-.68-.165-1.228-.544-1.658-1.072-.641-.785-1.04-1.864-1.26-2.996-.186-.972-.257-2.002-.244-2.898.028-1.721.398-3.101 1.22-3.982.822-.88 1.95-1.244 3.44-1.356.265-.017.532-.027.8-.027l.117.002c.85.019 1.65.208 2.395.574l.06.028.064-.02a9.12 9.12 0 0 1 2.489-.576l-.001.001zm-4.856 3.75a.75.75 0 0 0-.75.75v1.5a.75.75 0 0 0 1.5 0v-1.5a.75.75 0 0 0-.75-.75zm4.5 0a.75.75 0 0 0-.75.75v1.5a.75.75 0 0 0 1.5 0v-1.5a.75.75 0 0 0-.75-.75zm-6.75 5.25c0 1.24 1.118 2.25 2.5 2.25h2c1.382 0 2.5-1.01 2.5-2.25H9.772l.25.001zm0 0"/></svg>
