<svg xmlns="http://www.w3.org/2000/svg" viewBox="0 0 24 24" fill="currentColor" aria-hidden="true"><path d="M14.23 12.004a2.236 2.236 0 0 1-2.235 2.236 2.236 2.236 0 0 1-2.236-2.236 2.236 2.236 0 0 1 2.235-2.236 2.236 2.236 0 0 1 2.236 2.236zm2.648-10.69c-1.346 0-3.107.96-4.888 2.622-1.78-1.653-3.542-2.602-4.887-2.602-.41 0-.783.093-1.106.278-1.375.793-1.683 3.264-.973 6.365C1.98 8.917 0 10.42 0 12.004c0 1.59 1.99 3.097 5.043 4.03-.704 3.113-.39 5.588.988 6.38.32.187.69.275 1.102.275 1.345 0 3.107-.96 4.888-2.624 1.78 1.654 3.542 2.603 4.887 2.603.41 0 .783-.09 1.106-.275 1.374-.792 1.683-3.263.973-6.365C22.02 15.096 24 13.59 24 12.004c0-1.59-1.99-3.097-5.043-4.032.704-3.11.39-5.587-.988-6.38-.318-.184-.688-.277-1.092-.278zm-.005 1.09c.225 0 .406.044.558.127.666.382.955 1.835.73 3.704-.054.46-.142.945-.25 1.44-.96-.236-2.006-.417-3.107-.534-.66-.905-1.345-1.727-2.035-2.447 1.592-1.48 3.087-2.292 4.105-2.29zM9.373 3.369C10.39 3.37 11.886 4.18 13.477 5.66c-.69.72-1.375 1.54-2.035 2.446-1.1.117-2.146.298-3.107.534-.112-.49-.195-.975-.254-1.43-.23-1.868.054-3.32.714-3.707.19-.09.4-.135.578-.134zm4.605 2.55c.357.326.7.683 1.035 1.066-.335-.07-.675-.133-1.035-.186zm-2.43.13c-.36.053-.7.116-1.034.186.335-.383.678-.74 1.034-1.066zM12 8.393c.499 0 .976.044 1.436.1.172.246.34.5.503.76.225.354.435.714.636 1.07C14.83 10.988 15 11.5 15 12.004c0 .5-.17 1.013-.425 1.68-.2.356-.41.717-.636 1.07-.163.26-.33.515-.503.76-.46.056-.937.1-1.436.1-.499 0-.976-.044-1.436-.1-.172-.246-.34-.5-.503-.76-.225-.354-.435-.714-.636-1.07-.254-.667-.425-1.18-.425-1.68 0-.505.17-1.017.425-1.68.2-.356.41-.717.636-1.07.163-.26.33-.514.503-.76.46-.056.937-.1 1.436-.1zm4.04.57c.276.46.54.937.783 1.424.24-.5.462-.995.672-1.49-.23-.047-.46-.09-.7-.13l-.754.196zm-8.08 0l-.754-.196c-.24.04-.47.083-.7.13.21.495.432.99.672 1.49.243-.487.507-.964.783-1.424zm9.09 2.81c.374.903.67 1.808.87 2.688-1.182.303-2.493.524-3.876.655-.24-.392-.494-.79-.762-1.188.327-.512.638-1.038.935-1.572.278.134.555.273.833.417zm-10.1 0c.278-.144.555-.283.832-.417.297.534.608 1.06.935 1.572-.268.398-.522.796-.762 1.188-1.383-.13-2.694-.352-3.876-.655.2-.88.496-1.785.87-2.688zM12 14.29c.44 0 .876-.022 1.3-.063.21.32.413.643.604.963-.19.32-.393.642-.604.963-.424-.04-.86-.063-1.3-.063-.44 0-.876.022-1.3.063-.21-.32-.413-.643-.604-.963.19-.32.393-.642.604-.963.424.04.86.063 1.3.063zm-4.863.717c.24.396.496.793.764 1.188-.297.534-.608 1.06-.935 1.572-.277-.134-.554-.273-.832-.417-.374-.903-.67-1.808-.87-2.688 1.182-.303 2.493-.524 3.876-.655-.24.392-.494.79-.003 1.188zm9.726 0c-.002-.398-.256-.796-.003-1.188 1.383.13 2.694.352 3.876.655-.2.88-.496 1.785-.87 2.688-.278.144-.555.283-.832.417-.297-.512-.608-1.038-.935-1.572.268-.395.524-.792.764-1.188zM12 16.93c.499 0 .976-.044 1.436-.1.163.26.33.514.503.76-.46.056-.937.1-1.436.1-.499 0-.976-.044-1.436-.1.172-.246.34-.5.503-.76.46.056.937.1 1.436.1zm-2.57-1.53l1.035 1.066c-.36-.053-.7-.116-1.034-.186zm5.14 0c-.334.07-.674.133-1.034.186L14.57 15.4zM9.13 17.63c.2.43.354.843.46 1.222.055.207.095.406.12.597.232 1.87-.054 3.32-.714 3.707-.19.09-.4.135-.578.134-1.018 0-2.514-.81-4.105-2.29.69-.72 1.375-1.54 2.035-2.445 1.1-.117 2.146-.298 3.107-.534l-.325-.39zm5.74 0l.325.39c.96.236 2.006.417 3.107.534.66.906 1.345 1.727 2.035 2.447-1.592 1.48-3.087 2.292-4.105 2.29-.225 0-.406-.044-.558-.127-.666-.382-.955-1.835-.73-3.704.025-.19.065-.39.12-.597.106-.38.26-.793.46-1.222l-.654-.012zm-9.19.638c-.357-.326-.7-.683-1.035-1.066.335.07.675.133 1.035.186zm2.43-.13c.36-.053.7-.116 1.034-.186-.335.383-.678.74-1.034 1.066zm-5.748-9.23c-1.7.71-2.793 1.695-2.793 2.096 0 .4 1.094 1.386 2.793 2.097.344.144.706.278 1.08.398.247-.945.573-1.927.97-2.932-.397-1.006-.723-1.988-.97-2.932-.374.12-.736.254-1.08.398zm17.155 0c-.344-.144-.706-.278-1.08-.398-.247.945-.573 1.927-.97 2.932.397 1.005.723 1.987.97 2.932.374-.12.736-.254 1.08-.398 1.7-.71 2.793-1.695 2.793-2.097 0-.4-1.094-1.386-2.793-2.097z"/></svg>
