<svg xmlns="http://www.w3.org/2000/svg" viewBox="0 0 24 24" fill="currentColor" aria-hidden="true"><path d="M10.9 9.562l-1.933-1.016 1.928-1.01 1.933 1.01zm-3.855-2.02L5.1 6.53l1.947-1.02 1.948 1.02zm3.859 0l-1.944-1.02 1.944-1.02 1.944 1.02zm7.89 6.93c-.42.215-3.654 1.562-4.301 1.91-.649.347-1.009.344-1.517.101-.508-.242-3.928-1.625-4.367-1.812-.218-.093-.388-.177-.509-.25V8.99s4.305-1.842 4.995-2.074c.69-.232.923-.24 1.34-.09.417.15 4.358 1.812 4.358 1.812v3.79zm-7.89 2.29l-3.855-1.614v-3.79l3.855 1.614v3.79zm4.037-1.71l-3.856-1.614v3.79l3.856 1.614v-3.79zm3.853 1.71l-3.853-1.614v-3.79l3.853 1.614v3.79zM12 0C5.373 0 0 5.373 0 12s5.373 12 12 12 12-5.373 12-12S18.627 0 12 0zm7.127 14.472c-.42.215-3.654 1.562-4.301 1.91-.649.347-1.01.344-1.518.101C12.8 16.24 9.38 14.857 8.94 14.67c-.218-.093-.388-.177-.509-.25v.01l.018 3.81c.12.073.29.157.509.25.44.187 3.859 1.57 4.367 1.812.508.243.869.246 1.517-.1.648-.349 3.882-1.696 4.302-1.911.22-.112.388-.197.388-.25V14.26c0 .053-.168.137-.388.213h-.017z"/></svg>
