<svg viewBox="0 0 24 24" fill="currentColor" aria-hidden="true"><path d="M23.834 11.703a12.07 12.07 0 0 0-.098-1.518l-1.664-.553a9.936 9.936 0 0 0-.719-1.728l.893-1.507a12.072 12.072 0 0 0-1.927-2.127l-1.555.783a9.982 9.982 0 0 0-1.66-.957l-.34-1.7A12.031 12.031 0 0 0 12 2.071a12.031 12.031 0 0 0-4.764.324l-.34 1.7a9.982 9.982 0 0 0-1.66.957l-1.555-.783A12.072 12.072 0 0 0 1.754 6.397l.893 1.507a9.936 9.936 0 0 0-.719 1.728l-1.664.553a12.07 12.07 0 0 0-.098 1.518c0 .516.033 1.023.098 1.518l1.664.553c.2.6.44 1.178.719 1.728l-.893 1.507a12.072 12.072 0 0 0 1.927 2.127l1.555-.783c.518.358 1.073.664 1.66.957l.34 1.7a12.031 12.031 0 0 0 4.764.324 12.031 12.031 0 0 0 4.764-.324l.34-1.7a9.982 9.982 0 0 0 1.66-.957l1.555.783a12.072 12.072 0 0 0 1.927-2.127l-.893-1.507c.279-.55.519-1.128.719-1.728l1.664-.553c.065-.495.098-1.002.098-1.518zM12 17.16A5.16 5.16 0 1 1 12 6.84a5.16 5.16 0 0 1 0 10.32zm6.415-4.5h-1.65a4.77 4.77 0 0 1-.3 1.08h1.35l-.75 1.35h-1.2a4.76 4.76 0 0 1-.75.75l.6 1.05-1.35.75-.6-1.05a4.77 4.77 0 0 1-1.08.3v1.2h-1.5v-1.2a4.77 4.77 0 0 1-1.08-.3l-.6 1.05-1.35-.75.6-1.05a4.76 4.76 0 0 1-.75-.75h-1.2l-.75-1.35h1.35a4.77 4.77 0 0 1-.3-1.08H5.585v-1.5h1.65a4.77 4.77 0 0 1 .3-1.08H6.185l.75-1.35h1.2a4.76 4.76 0 0 1 .75-.75l-.6-1.05 1.35-.75.6 1.05a4.77 4.77 0 0 1 1.08-.3V8.16h1.5v1.2a4.77 4.77 0 0 1 1.08.3l.6-1.05 1.35.75-.6 1.05a4.76 4.76 0 0 1 .75.75h1.2l.75 1.35h-1.35a4.77 4.77 0 0 1 .3 1.08h1.65v1.5z"/></svg>
