<svg xmlns="http://www.w3.org/2000/svg" viewBox="0 0 24 24" fill="currentColor" aria-hidden="true"><path d="M12 0C5.373 0 0 5.373 0 12s5.373 12 12 12 12-5.373 12-12S18.627 0 12 0zm2.302 16.517c-.213.11-.437.207-.672.286a5.92 5.92 0 0 1-.803.195 5.81 5.81 0 0 1-.93.069 4.3 4.3 0 0 1-1.093-.13 2.93 2.93 0 0 1-.854-.382 1.814 1.814 0 0 1-.567-.633 1.932 1.932 0 0 1-.205-.91c0-.244.038-.48.112-.7.074-.22.178-.424.308-.61.13-.185.283-.354.456-.506a4.3 4.3 0 0 1 .566-.396l-.097-.436a4.875 4.875 0 0 1-.125-.703 5.62 5.62 0 0 1-.032-.755c0-.311.03-.62.094-.92.064-.305.163-.592.295-.858.133-.268.304-.51.51-.72.206-.21.452-.376.735-.495.282-.12.608-.178.973-.178.324 0 .611.056.858.165.245.11.455.27.626.476.17.208.298.458.382.748.082.29.124.617.124.977 0 .4-.05.783-.148 1.142a4.87 4.87 0 0 1-.422 1.022 4.22 4.22 0 0 1-.664.862c-.2.197-.416.372-.642.526l.088.42c.043.21.072.414.086.608.014.193.02.383.02.566 0 .266-.02.52-.062.755l.49-.21a4.1 4.1 0 0 0 .462-.267l.268.607a3.53 3.53 0 0 1-.4.284zm-1.72-.517c.135 0 .276-.01.418-.03a2.7 2.7 0 0 0 .375-.085 2.82 2.82 0 0 0 .31-.133l-.054-.305a6.066 6.066 0 0 1-.09-.744 9.23 9.23 0 0 1-.02-.765c0-.217.005-.432.015-.64.01-.207.024-.41.043-.607a2.7 2.7 0 0 1-.49.256 2.58 2.58 0 0 1-.538.14 3.05 3.05 0 0 1-.559.052c-.18 0-.35-.02-.505-.058a1.156 1.156 0 0 1-.405-.18.869.869 0 0 1-.268-.316 1.036 1.036 0 0 1-.097-.465c0-.188.038-.358.115-.506.076-.148.183-.274.319-.378a1.48 1.48 0 0 1 .484-.237 2.07 2.07 0 0 1 .59-.082c.244 0 .464.04.657.117.193.078.358.18.495.308l.163-.5c-.167-.14-.366-.25-.596-.332a2.31 2.31 0 0 0-.736-.122c-.307 0-.584.05-.832.147a1.884 1.884 0 0 0-.638.406 1.74 1.74 0 0 0-.402.617 2.14 2.14 0 0 0-.137.762c0 .296.058.56.175.79.117.233.285.43.502.591.217.162.48.284.786.37.305.083.652.126 1.04.126.186 0 .368-.012.548-.036a2.87 2.87 0 0 0 .48-.111l.02.13c-.26.132-.537.238-.826.318-.29.08-.595.12-.91.12a2.67 2.67 0 0 1-.862-.13 1.858 1.858 0 0 1-.639-.37 1.596 1.596 0 0 1-.4-.575 1.944 1.944 0 0 1-.139-.749c0-.323.063-.614.19-.873a1.97 1.97 0 0 1 .518-.655c.22-.18.48-.317.773-.41.293-.093.613-.14.953-.14.285 0 .54.033.764.098.224.064.42.152.59.263l.047-.155c-.165-.113-.372-.207-.617-.28a2.76 2.76 0 0 0-.784-.11c-.34 0-.655.054-.939.163a2.35 2.35 0 0 0-.738.457c-.206.196-.366.43-.48.7-.115.27-.172.572-.172.9 0 .283.046.54.14.77.093.23.229.43.41.594.18.166.401.294.663.387.262.092.562.138.9.138z"/></svg>
