<svg xmlns="http://www.w3.org/2000/svg" viewBox="0 0 24 24" fill="currentColor" aria-hidden="true"><path d="M3.965.686L12.063 0l8.098.686 3.839 6.233L12.063 24 .126 6.919l3.839-6.233zM7.625 9.568L12.063 20.5l4.438-10.932H7.625zm-1.33 0H2.092l7.452 9.17L6.295 9.568zm13.437 0H15.63l-3.248 9.17 7.352-9.17zm-.87-1.386L16.78 2.375l-4.717 5.807h6.799zm-7.939 0L7.22 2.375 5.136 8.182h6.797zm-7.938 0L5.62 3.47 3.034 7.796l.851.386zm15.05 0l.85-.386L16.38 3.47l2.133 4.712zM10.813 1.41L5.26 7.796h5.553V1.41zm2.5 0V7.796h5.553l-5.553-6.386z"/></svg>
