<svg viewBox="0 0 24 24" fill="currentColor" aria-hidden="true"><path d="M21.678.2c-1.217-.401-2.533.102-3.233.955-1.02 1.258-.801 2.786.53 3.755 1.233.895 3.23.95 4.47-.177.973-.887 1.147-2.49.152-3.496a3.035 3.035 0 0 0-1.919-1.037zM3.954 5.033c-.115.003-.227.012-.34.026-1.64.196-2.88 1.466-3.417 2.962a8.508 8.508 0 0 0-.171 4.79c.398 1.756 1.467 3.35 3.074 4.137.685.335 1.456.498 2.22.516.28.006.56-.008.837-.041a7.21 7.21 0 0 0 2.032-.583l.153-.069.037.154c.125.514.253 1.028.381 1.542.18.728.345 1.462.55 2.185.072.256.156.51.255.757.147.366.336.72.592.997.258.28.589.486.94.554.286.056.578.033.864-.015.285-.048.567-.12.846-.204.338-.1.672-.214 1.005-.333.317-.113.633-.232.948-.354.315-.121.628-.246.94-.373.31-.125.617-.253.924-.383.306-.13.609-.263.91-.397.117-.05.234-.102.349-.154l-.003-.022c-.032-.23-.087-.453-.135-.677-.048-.227-.093-.455-.14-.683l-.06-.298c-.158-.78-.317-1.56-.476-2.34a85.46 85.46 0 0 1-.284-1.48 95.89 95.89 0 0 1-.258-1.502c-.078-.497-.15-.995-.218-1.493-.067-.5-.13-1.002-.183-1.504-.054-.5-.1-1.001-.133-1.504a23.22 23.22 0 0 1-.042-1.51c.006-.5.028-1.003.074-1.502.045-.499.116-.998.215-1.493.098-.493.227-.986.4-1.465.17-.476.39-.946.665-1.39.066-.103.135-.204.207-.303a5.42 5.42 0 0 0-1.337-.49 5.46 5.46 0 0 0-3.112.248C5.806 5.348 4.881 5.01 3.954 5.033zm7.764 1.196c-.078.067-.155.135-.229.206-.77.742-1.336 1.7-1.693 2.73-.363 1.044-.51 2.162-.497 3.267.013 1.104.19 2.206.483 3.268.292 1.06.703 2.089 1.229 3.054.18.33.37.655.575.973a38.55 38.55 0 0 1-.37-.064c-.615-.113-1.23-.253-1.828-.445-.598-.192-1.178-.44-1.71-.765a6.11 6.11 0 0 1-1.43-1.177 5.862 5.862 0 0 1-.992-1.685 7.38 7.38 0 0 1-.432-2.05 9.29 9.29 0 0 1 .07-2.152 7.61 7.61 0 0 1 .648-2.106 5.47 5.47 0 0 1 1.33-1.797 4.416 4.416 0 0 1 2.012-.98 4.624 4.624 0 0 1 2.264.12c.12.038.24.08.35.127v-.524z"/></svg>
