<svg viewBox="0 0 24 24" fill="currentColor" aria-hidden="true"><path d="M10.354 21.125a4.44 4.44 0 0 1-4.765-1.767 4.109 4.109 0 0 1-.703-3.107 3.898 3.898 0 0 1 .134-.522l.105-.321.287.21a7.21 7.21 0 0 0 2.186 1.092l.208.063-.02.208a1.253 1.253 0 0 0 .226.83 1.337 1.337 0 0 0 1.435.533 1.231 1.231 0 0 0 .343-.15l5.59-3.562a1.164 1.164 0 0 0 .524-.778 1.242 1.242 0 0 0-.211-.937 1.337 1.337 0 0 0-1.435-.533 1.23 1.23 0 0 0-.343.15l-2.133 1.36a4.078 4.078 0 0 1-1.135.496 4.44 4.44 0 0 1-4.765-1.766 4.108 4.108 0 0 1-.702-3.108 3.855 3.855 0 0 1 1.742-2.582l5.589-3.563a4.072 4.072 0 0 1 1.135-.496 4.44 4.44 0 0 1 4.765 1.767 4.109 4.109 0 0 1 .703 3.107 3.919 3.919 0 0 1-.134.522l-.105.321-.287-.21a7.204 7.204 0 0 0-2.186-1.092l-.208-.063.02-.208a1.253 1.253 0 0 0-.226-.83 1.337 1.337 0 0 0-1.435-.533 1.23 1.23 0 0 0-.343.15L8.62 11.56a1.164 1.164 0 0 0-.524.778 1.242 1.242 0 0 0 .211.937 1.338 1.338 0 0 0 1.435.533 1.23 1.23 0 0 0 .343-.15l2.133-1.36a4.078 4.078 0 0 1 1.135-.496 4.44 4.44 0 0 1 4.765 1.766 4.108 4.108 0 0 1 .702 3.108 3.857 3.857 0 0 1-1.742 2.583l-5.589 3.562a4.072 4.072 0 0 1-1.135.496z"/></svg>
