<svg viewBox="0 0 24 24" fill="currentColor" aria-hidden="true"><path d="M11.99 0C5.377 0 0 5.377 0 12c0 6.622 5.377 12 11.99 12C18.614 24 24 18.622 24 12c0-6.623-5.386-12-12.01-12zm5.985 7.737a3.29 3.29 0 0 1-.59 1.958 7.563 7.563 0 0 1-1.164 1.244c-.46.404-.921.807-1.382 1.222-.461.404-.878.852-1.241 1.344.308-.056.614-.09.921-.09.46 0 .888.09 1.28.26.395.179.747.417 1.063.72.315.314.563.674.745 1.09.18.417.27.867.27 1.344a4.27 4.27 0 0 1-.339 1.712 4.154 4.154 0 0 1-.945 1.366 4.432 4.432 0 0 1-1.424.9 4.87 4.87 0 0 1-1.778.326c-.542 0-1.05-.079-1.525-.248a3.776 3.776 0 0 1-1.207-.698 3.21 3.21 0 0 1-.799-1.07 3.244 3.244 0 0 1-.29-1.378c0-.585.158-1.1.473-1.544.316-.44.757-.66 1.319-.66.316 0 .586.091.812.271.225.18.338.44.338.776 0 .292-.09.552-.27.776-.178.225-.418.338-.718.338a.826.826 0 0 1-.348-.079.9.9 0 0 1-.27-.203c.023.124.068.248.135.36.068.113.158.213.27.294.112.09.236.158.383.203.145.045.3.068.46.068.282 0 .563-.068.843-.214.28-.147.54-.36.765-.641.226-.27.405-.608.542-.99.135-.382.203-.81.203-1.274 0-.394-.068-.755-.214-1.082a2.437 2.437 0 0 0-.597-.843 2.695 2.695 0 0 0-.911-.552 3.24 3.24 0 0 0-1.16-.203 4.67 4.67 0 0 0-.955.09 4.875 4.875 0 0 0-.934.304l-.508-1.14c.405-.303.821-.563 1.27-.776a8.33 8.33 0 0 1 1.32-.529c.451-.135.88-.225 1.296-.271.417-.046.8-.068 1.15-.068.034-.09.057-.18.067-.27a2.017 2.017 0 0 0 .011-.26c0-.405-.112-.765-.338-1.082-.225-.316-.575-.473-1.051-.473-.248 0-.508.056-.779.158-.27.113-.518.271-.754.473-.236.204-.45.44-.64.72a3.424 3.424 0 0 0-.44.922l-1.39-.36c.09-.406.248-.788.462-1.15.225-.36.495-.676.822-.944.326-.27.697-.484 1.114-.641.417-.158.878-.236 1.38-.236.552 0 1.06.09 1.514.27.463.18.855.43 1.184.742.328.315.585.686.764 1.103.178.428.271.888.271 1.377v.09c.01.079.01.169 0 .27z"/></svg>
